# xmcd CD database file
#
# Track frame offsets:
#	150
#	11962
#	25122
#	42625
#	63265
#	90243
#	104802
#	117706
#	140235
#	154656
#	176866
#	196336
#	219909
#	234025
#	253337
#	266774
#
# Disc length: 3767 seconds
#
# Revision: 0
# Processed by: cddbd v1.5.2PL0 Copyright (c) Steve Scherf et al.
# Submitted via: CDex 1.51
#
DISCID=ed0eb510
DTITLE=Various Artist - We All Love Ella (Celebrating The First Lady Of Song)
DYEAR=2007
DGENRE=Jazz
TTITLE0=Natalie Cole - A-Tisket, A-Tasket
TTITLE1=Chaka Khan - Lullaby Of Birdland
TTITLE2=Natalie Cole - The Lady Is A Tramp
TTITLE3=Queen Latifah - Dream A Little Dream Of Me
TTITLE4=Natalie Cole and Chaka Khan - (If You Can't Sing it) You'll Have To Swing It
TTITLE5=Dianne Reeves - Oh, Lady Be Good!
TTITLE6=Lizz Wright - Reacting For The Moon
TTITLE7=Ledisi - Blues In The Night
TTITLE8=Linda Ronstadt - Miss Otis Regrets
TTITLE9=Gladys Knight - Someone Watch Over Me
TTITLE10=Etta James - Do Nothin' Till You Hear From Me
TTITLE11=K.D. Lang - Angel Eyes
TTITLE12=Michael Bublé - Too Close For Comfort
TTITLE13=Ella Fitzgerald and Stevie Wonder - You Are The Sushine Of My Life
TTITLE14=Dee Dee Bridgewater - Cotton Tail
TTITLE15=Kim - They Can't That Away From Me
EXTD=YEAR: 2007
EXTT0=
EXTT1=
EXTT2=
EXTT3=
EXTT4=
EXTT5=
EXTT6=
EXTT7=
EXTT8=
EXTT9=
EXTT10=
EXTT11=
EXTT12=
EXTT13=
EXTT14=
EXTT15=
PLAYORDER=
